# xmcd CD database file
#
# Track frame offsets:
#	182
#	18252
#	41935
#
# Disc length: 797 seconds
#
# Revision: 0
# Processed by: cddbd v1.5PL3 Copyright (c) Steve Scherf et al.
# Submitted via: CDex 1.50
#
DISCID=1e031b03
DTITLE=平家みちよ - scene
DYEAR=1999
DGENRE=JPop
TTITLE0=scene
TTITLE1=return
TTITLE2=scene (original karaoke)
EXTD=YEAR: 1999
EXTT0=
EXTT1=
EXTT2=
PLAYORDER=
